Coordinates
version=1
nRows=26
nColumns=24
inDegrees=yes

Units are S.I. units (second, meters, Newtons, ...)
Angles are in degrees.

endheader
time	pelvis_tilt	pelvis_list	pelvis_rotation	pelvis_tx	pelvis_ty	pelvis_tz	hip_flexion_r	hip_adduction_r	hip_rotation_r	knee_angle_r	ankle_angle_r	subtalar_angle_r	mtp_angle_r	hip_flexion_l	hip_adduction_l	hip_rotation_l	knee_angle_l	ankle_angle_l	subtalar_angle_l	mtp_angle_l	lumbar_extension	lumbar_bending	lumbar_rotation
      0.90400000	     -3.66122808	     -3.64683536	      5.83691853	     -0.39422740	      0.90581098	      0.29349514	     15.31913306	      9.71800408	     -2.44169936	    -23.28881229	     10.43162965	     -1.97311216	      4.06848085	     14.78132001	     -7.83072793	     -3.65560924	    -62.23244346	      8.31412329	     -4.00217694	      2.96809470	     -0.77245231	      6.14846783	     -2.51331688
      0.90816667	     -3.61061842	     -3.50798149	      5.61510194	     -0.38930051	      0.90686986	      0.29387133	     14.63543257	      9.68355783	     -2.14834044	    -22.77599351	     10.44405306	     -1.94785692	      4.06439503	     15.33407539	     -7.66154799	     -3.93350626	    -61.72874576	      8.69909547	     -4.13002686	      2.85768926	     -0.87200602	      6.00707486	     -2.18413626
      0.91233333	     -3.55473942	     -3.36621407	      5.37784602	     -0.38439584	      0.90789459	      0.29427659	     13.94877195	      9.64346585	     -1.84588407	    -22.26341062	     10.45344339	     -1.91428203	      4.06295907	     15.86677649	     -7.49898904	     -4.23253579	    -61.17671684	      9.04420882	     -4.25703197	      2.74074324	     -0.98242337	      5.86219048	     -1.84494769
      0.91650000	     -3.50930035	     -3.21909866	      5.11882071	     -0.37953621	      0.90885100	      0.29469973	     13.28804117	      9.59401617	     -1.51786724	    -21.77590007	     10.46006037	     -1.85428813	      4.06401859	     16.39862849	     -7.33418491	     -4.55310425	    -60.58281213	      9.36326109	     -4.39811534	      2.65635336	     -1.10712204	      5.70968979	     -1.57225650
      0.92066667	     -3.42938426	     -3.07874155	      4.86549799	     -0.37464510	      0.90982786	      0.29513641	     12.57391242	      9.54912640	     -1.20899580	    -21.25147379	     10.47431207	     -1.84204804	      4.06764024	     16.87696934	     -7.19281941	     -4.88397990	    -59.93319316	      9.61003482	     -4.52314167	      2.54106818	     -1.24034076	      5.56428991	     -1.16426148
      0.92483333	     -3.35922473	     -2.93699912	      4.58844594	     -0.36978190	      0.91073822	      0.29559906	     11.88227923	      9.49831702	     -0.88209161	    -20.74622615	     10.47541822	     -1.81439981	      4.07417829	     17.35009257	     -7.05801335	     -5.24545748	    -59.24060902	      9.83869925	     -4.66312996	      2.41782527	     -1.36942248	      5.42001956	     -0.78486567
      0.92900000	     -3.28941205	     -2.79463812	      4.30109467	     -0.36493952	      0.91159602	      0.29607907	     11.19859643	      9.44083530	     -0.55171626	    -20.25192809	     10.48058445	     -1.77480509	      4.08402946	     17.81127006	     -6.93023531	     -5.61960865	    -58.50608655	     10.03041331	     -4.80231994	      2.29765905	     -1.50164992	      5.27651683	     -0.42222371
      0.93316667	     -3.22864183	     -2.67254695	      4.01047846	     -0.36011819	      0.91237582	      0.29657147	     10.52690543	      9.39791710	     -0.22848485	    -19.74776155	     10.44346664	     -1.73228833	      4.10498546	     18.28058827	     -6.83450634	     -6.00267907	    -57.74976782	     10.20984262	     -4.93969282	      2.09160929	     -1.62485601	      5.14443646	      0.05244339
      0.93733333	     -3.18332573	     -2.52691356	      3.69217780	     -0.35533516	      0.91307714	      0.29710433	      9.89904309	      9.32361121	      0.10726058	    -19.30410492	     10.47927323	     -1.63486810	      4.11510144	     18.74635242	     -6.72557316	     -6.42981936	    -56.94445411	     10.32638988	     -5.10231321	      2.02293213	     -1.73547887	      4.96645468	      0.22486065
      0.94150000	     -3.08587811	     -2.40396803	      3.40258082	     -0.35052923	      0.91382781	      0.29757182	      9.18500109	      9.26664160	      0.43037449	    -18.78918853	     10.47034186	     -1.62355275	      4.14662479	     19.14301604	     -6.62594138	     -6.79835857	    -56.08731947	     10.41717446	     -5.26619252	      1.81259776	     -1.90799110	      4.85740250	      0.82516852
      0.94566667	     -3.00343101	     -2.26791183	      3.10152741	     -0.34574929	      0.91449197	      0.29806426	      8.50877051	      9.18656428	      0.74039263	    -18.32062022	     10.52717286	     -1.55993579	      4.17180059	     19.54269806	     -6.52456055	     -7.19968126	    -55.19315767	     10.45602452	     -5.44360018	      1.67503424	     -2.05878846	      4.69597682	      1.13965868
      0.94983333	     -2.93274250	     -2.14494719	      2.78849253	     -0.34099355	      0.91508073	      0.29856357	      7.85245860	      9.11288907	      1.05581678	    -17.85692422	     10.54925219	     -1.48412445	      4.20263297	     19.94560635	     -6.44251472	     -7.60989476	    -54.27030319	     10.48344671	     -5.62292279	      1.52551399	     -2.20026300	      4.55923480	      1.54036283
      0.95400000	     -2.86388873	     -2.02723718	      2.47534446	     -0.33625172	      0.91561104	      0.29905010	      7.20536868	      9.03535523	      1.35844553	    -17.40396758	     10.58130518	     -1.39551780	      4.23674636	     20.33796449	     -6.36664765	     -8.01735111	    -53.30943054	     10.48484466	     -5.79865497	      1.37686920	     -2.33731632	      4.43190707	      1.93068086
      0.95816667	     -2.80994738	     -1.91056058	      2.14135018	     -0.33153293	      0.91606331	      0.29954022	      6.59428605	      8.94922305	      1.65854231	    -16.98782584	     10.60328388	     -1.28275539	      4.26266156	     20.73030990	     -6.30165672	     -8.45595846	    -52.31328793	     10.45130175	     -5.96436375	      1.27575391	     -2.45536291	      4.32051479	      2.21996039
      0.96233333	     -2.74560929	     -1.80559292	      1.83136258	     -0.32680889	      0.91647427	      0.30000043	      5.96135653	      8.86757361	      1.93757684	    -16.54622482	     10.64334128	     -1.16989216	      4.29250546	     21.10563229	     -6.23932951	     -8.85284117	    -51.28813853	     10.40021450	     -6.13983937	      1.17138052	     -2.58697367	      4.20735976	      2.58851039
      0.96650000	     -2.67785619	     -1.71679536	      1.54404925	     -0.32209459	      0.91682823	      0.30042864	      5.31715898	      8.79485175	      2.19415471	    -16.08196570	     10.71112671	     -1.05765934	      4.33847697	     21.47599273	     -6.18520499	     -9.21264125	    -50.24226028	     10.34404104	     -6.31493436	      1.02736866	     -2.72454868	      4.08494088	      3.06072759
      0.97066667	     -2.63887648	     -1.62581222	      1.21788780	     -0.31740744	      0.91708868	      0.30087312	      4.73606608	      8.70994506	      2.45795853	    -15.68110033	     10.73867094	     -0.90931256	      4.37227829	     21.85388313	     -6.14645761	     -9.62837981	    -49.15721516	     10.24257510	     -6.44957128	      0.92940164	     -2.82851639	      3.99922834	      3.34491556
      0.97483333	     -2.57851836	     -1.55427857	      0.94216096	     -0.31269159	      0.91731930	      0.30124471	      4.10440913	      8.63787475	      2.68381060	    -15.22275896	     10.81842673	     -0.76794267	      4.43284467	     22.20946922	     -6.10151733	     -9.95888277	    -48.05379808	     10.15660781	     -6.61022085	      0.77437505	     -2.95245859	      3.90574028	      3.81632395
      0.97900000	     -2.54529868	     -1.48272809	      0.63373191	     -0.30800615	      0.91745824	      0.30163811	      3.53422518	      8.55702488	      2.90896722	    -14.82667660	     10.86236036	     -0.60563397	      4.47422852	     22.57420311	     -6.07532980	    -10.34101779	    -46.91593434	     10.01957725	     -6.71415505	      0.67594106	     -3.04575891	      3.83923385	      4.08319265
      0.98316667	     -2.50306385	     -1.42195662	      0.34957694	     -0.30331546	      0.91755520	      0.30198485	      2.94387120	      8.48067096	      3.11408924	    -14.40730145	     10.93018937	     -0.43066222	      4.52119471	     22.92251113	     -6.04499324	    -10.67799114	    -45.75446580	      9.88130893	     -6.82570356	      0.57532815	     -3.14932870	      3.76853258	      4.42717245
      0.98733333	     -2.47230796	     -1.37468063	      0.07269893	     -0.29861713	      0.91757662	      0.30229347	      2.36763169	      8.40968687	      3.29987295	    -13.99056538	     11.00349444	     -0.24511636	      4.57089098	     23.27457847	     -6.02341745	    -10.99526770	    -44.57389517	      9.73602894	     -6.90435048	      0.48022237	     -3.23607038	      3.71785665	      4.76214404
      0.99150000	     -2.44650866	     -1.34437119	     -0.18414095	     -0.29391812	      0.91752612	      0.30256205	      1.79242326	      8.35109675	      3.46783733	    -13.56414456	     11.10584144	     -0.04335955	      4.65467867	     23.62955760	     -6.00640372	    -11.26644771	    -43.38289150	      9.61140889	     -6.97365994	      0.33840846	     -3.32086247	      3.68150308	      5.19398219
      0.99566667	     -2.42913441	     -1.31275562	     -0.44657835	     -0.28922600	      0.91741827	      0.30283074	      1.23528487	      8.28608519	      3.63117046	    -13.15423830	     11.19462077	      0.15320212	      4.72385344	     23.97716254	     -5.99348657	    -11.55405057	    -42.16084672	      9.44850794	     -6.99483593	      0.23272980	     -3.39401127	      3.64631057	      5.48155254
      0.99983333	     -2.41734673	     -1.29563760	     -0.70012113	     -0.28452160	      0.91724752	      0.30306054	      0.68699346	      8.22923120	      3.77851579	    -12.75254926	     11.28505073	      0.36468366	      4.79443918	     24.32118729	     -5.98839901	    -11.81446916	    -40.92239794	      9.28874629	     -6.98677535	      0.13730950	     -3.45858749	      3.62877603	      5.78594104
      1.00400000	     -2.42574393	     -1.28744283	     -0.95347219	     -0.27982439	      0.91699828	      0.30327721	      0.17029180	      8.17772116	      3.91454675	    -12.36738656	     11.34358840	      0.57207149	      4.84181282	     24.67697471	     -5.99429369	    -12.07353166	    -39.66540522	      9.10633707	     -6.92798175	      0.07995317	     -3.49298753	      3.62816737	      6.00783648
      1.00816667	     -2.41428454	     -1.29172686	     -1.18010546	     -0.27511297	      0.91671904	      0.30343467	     -0.38511727	      8.13379335	      4.04435400	    -11.95113966	     11.47261150	      0.79582575	      4.92059276	     25.00521699	     -5.99030923	    -12.26752137	    -38.39584542	      8.97228906	     -6.87493722	      0.00376435	     -3.56543657	      3.63567957	      6.37163048
